<svg xmlns="http://www.w3.org/2000/svg" viewBox="0 0 800 600" preserveAspectRatio="xMidYMid slice">
<defs>
<linearGradient id="wall" x1="0" y1="0" x2="0" y2="1">
<stop offset="0" stop-color="#d8c8a8"/>
<stop offset="1" stop-color="#c5b08a"/>
</linearGradient>
<linearGradient id="cabinet" x1="0" y1="0" x2="0" y2="1">
<stop offset="0" stop-color="#f0e6d2"/>
<stop offset="1" stop-color="#dcc8a6"/>
</linearGradient>
</defs>
<rect width="800" height="600" fill="url(#wall)"/>
<rect y="450" width="800" height="150" fill="#8a6a4d"/>
<rect x="100" y="200" width="600" height="250" fill="url(#cabinet)" stroke="#a08868" stroke-width="2"/>
<g fill="url(#cabinet)" stroke="#a08868" stroke-width="1">
<rect x="120" y="220" width="120" height="120" rx="3"/>
<rect x="260" y="220" width="120" height="120" rx="3"/>
<rect x="400" y="220" width="120" height="120" rx="3"/>
<rect x="540" y="220" width="120" height="120" rx="3"/>
<rect x="120" y="360" width="100" height="80" rx="3"/>
<rect x="240" y="360" width="100" height="80" rx="3"/>
<rect x="460" y="360" width="100" height="80" rx="3"/>
<rect x="580" y="360" width="100" height="80" rx="3"/>
</g>
<g fill="#8a6a4d">
<rect x="175" y="275" width="10" height="3" rx="1"/>
<rect x="315" y="275" width="10" height="3" rx="1"/>
<rect x="455" y="275" width="10" height="3" rx="1"/>
<rect x="595" y="275" width="10" height="3" rx="1"/>
</g>
<rect x="350" y="370" width="120" height="70" fill="#3a2d20" rx="3"/>
<rect x="365" y="385" width="90" height="40" fill="#5a4530" rx="2"/>
<text x="400" y="540" text-anchor="middle" fill="#F5EFE4" font-family="Georgia, serif" font-style="italic" font-size="22" opacity="0.7">[ kuchyně — sem patří vaše fotka ]</text>
</svg>
