<svg xmlns="http://www.w3.org/2000/svg" viewBox="0 0 800 600" preserveAspectRatio="xMidYMid slice">
<defs>
<radialGradient id="grass" cx="0.5" cy="0.5" r="0.7">
<stop offset="0" stop-color="#9ab86a"/>
<stop offset="1" stop-color="#6a8848"/>
</radialGradient>
</defs>
<rect width="800" height="600" fill="url(#grass)"/>
<g fill="#3a5a28" opacity="0.4">
<circle cx="100" cy="180" r="80"/>
<circle cx="700" cy="160" r="90"/>
<circle cx="50" cy="100" r="60"/>
<circle cx="750" cy="80" r="70"/>
</g>
<ellipse cx="400" cy="450" rx="220" ry="60" fill="#8a6a4d"/>
<ellipse cx="400" cy="430" rx="200" ry="50" fill="#a07a52"/>
<g stroke="#6a4a30" stroke-width="2" fill="none">
<line x1="220" y1="430" x2="580" y2="430"/>
<line x1="240" y1="450" x2="560" y2="450"/>
<line x1="260" y1="465" x2="540" y2="465"/>
</g>
<g stroke="#7a5a3a" stroke-width="1" opacity="0.6">
<line x1="280" y1="395" x2="290" y2="455"/>
<line x1="320" y1="395" x2="325" y2="455"/>
<line x1="360" y1="395" x2="365" y2="455"/>
<line x1="400" y1="395" x2="400" y2="455"/>
<line x1="440" y1="395" x2="445" y2="455"/>
<line x1="480" y1="395" x2="475" y2="455"/>
<line x1="520" y1="395" x2="510" y2="455"/>
</g>
<circle cx="400" cy="370" r="35" fill="#c8a878" opacity="0.8"/>
<g fill="#e8b8d8">
<circle cx="180" cy="500" r="8"/>
<circle cx="195" cy="510" r="8"/>
<circle cx="170" cy="515" r="8"/>
<circle cx="610" cy="495" r="8"/>
<circle cx="625" cy="510" r="8"/>
<circle cx="600" cy="515" r="8"/>
</g>
<text x="400" y="270" text-anchor="middle" fill="#F5EFE4" font-family="Georgia, serif" font-style="italic" font-size="22" opacity="0.8">[ zahrada — sem patří vaše fotka ]</text>
</svg>
